<?xml version="1.0" encoding="UTF-8"?>
<svg id="Layer_1" data-name="Layer 1" xmlns="http://www.w3.org/2000/svg" viewBox="0 0 479.26 479.26">
  <defs>
    <style>
      .cls-1 {
        font-family: Poppins-SemiBold, Poppins;
        font-size: 48px;
        font-weight: 600;
      }

      .cls-1, .cls-2 {
        fill: #fff;
      }

      .cls-3, .cls-4 {
        fill: #191919;
      }

      .cls-2 {
        stroke: #f2f2f2;
        stroke-miterlimit: 10;
        stroke-width: 10px;
      }

      .cls-4 {
        font-family: Poppins-Bold, Poppins;
        font-size: 62.64px;
        font-weight: 700;
      }
    </style>
  </defs>
  <g>
    <circle class="cls-2" cx="239.63" cy="239.63" r="200"/>
    <g>
      <path class="cls-3" d="M89.5,251.72c0-.94.29-1.86.85-2.62,6.58-8.97,12.54-15.12,10.61-27.58-1.25-8.11-12.22-17.67-4.14-24.6,8.24-7.06,17.66-8.63,19.05-22.56.76-7.53-4.75-19.49,3.71-23.25,9.41-4.19,17.89-1.52,24.92-12.59,4.94-7.76,2.97-23.12,13.87-23.11,11.27.01,17.29,4.27,27.84-4.34,7.13-5.82,8.99-19.47,19.91-15.81,10.37,3.47,13.52,9.76,26.86,5.73,8.7-2.63,16.03-15.86,24.86-8.38,5.65,4.78,7.68,10.44,15.83,13.06,12.93,4.16,20.35-4.05,28.17-2.37,1.14.25,2.66,1.71,3.56,1.53,1.13-.22,7.58-8.03,9.93-9.41,6.17-3.63,11.83-1.39,16.83,2.75,2.24,1.86,15.46,15.03,16.08,16.74,1.26,3.44-1.31,7.06-4.95,6.17-3.17-.78-11.5-9.46-16.05-14.43-1.7-1.86-4.6-1.93-6.4-.17l-217.82,213.26c-.2.2-.39.41-.55.64-1.19,1.84-.79,3.97.79,5.5l50.7,50.7c2.08,2.12,4.84,1.89,6.76-.29l215.64-215.72c1.25-1.59,1.25-3.63,0-5.22l-20.34-20.88c-.18-.18-.35-.38-.49-.6-.78-1.17-.99-1.95-.99-2.11.1-4.54,3.01-5.5,6.47-4.38.83.27,1.47.93,2.09,1.54,3.84,3.74,19.52,19.13,21.31,22.47,2.22,4.13,2.42,9.03,0,13.14-1.38,2.34-9.19,8.8-9.41,9.93-.17.91,1.29,2.42,1.53,3.56,1.68,7.82-6.53,15.24-2.37,28.17,2.62,8.15,8.28,10.18,13.06,15.83,7.47,8.83-5.75,16.16-8.38,24.86-3.97,13.11,1.95,16.29,5.56,26.44,4.09,11.49-10.29,13.22-16.18,20.97-7.71,10.14-4.08,15.83-3.82,26.61.26,10.93-10.95,9.05-18.21,12.32-5.54,2.5-11.27,8.21-13.77,13.77-3.27,7.26-1.38,18.47-12.32,18.21-11.09-.27-17.05-3.97-27.25,4.35-5.59,4.56-8.62,15.25-15.22,16.48-4.82.9-12.05-5.35-17.48-6.63-13.23-3.13-19.84,3-29.42,10.1-.76.57-1.69.87-2.64.87h-1.89c-.93,0-1.83-.29-2.59-.82-6.51-4.59-9.97-11.93-18.22-14.58-12.93-4.16-20.35,4.05-28.17,2.37-1.14-.25-2.66-1.71-3.56-1.53-1.09.21-7.3,7.64-9.21,8.95-5.87,4.02-12.91,2.18-17.71-2.45-.09-.09-.18-.18-.27-.28-14.76-16.8-34.57-31.89-48.81-48.79-4.12-4.89-6.4-9.54-3.61-15.95,1.46-3.36,9.73-9.8,9.98-11.11.17-.91-1.29-2.42-1.53-3.56-.94-4.38,1.68-8.29,2.53-12.44,1.74-8.5-.19-17.48-5.61-24.34-2.78-3.52-6.94-5.87-9.3-9.68-.43-.7-.65-1.51-.65-2.32v-2.09ZM115.08,194.98c-1.82,1.81-11.88,8.04-12.05,8.76-.16.66,4.96,10.12,5.65,12.41,2.37,7.87,1.83,16.89-1.66,24.38-1.17,2.52-7.97,10.97-8.05,11.89-.09,1.02,6.79,7.18,8.02,8.79,7.53,9.82,9.11,21.92,6.12,33.57-.24.92.91,1.56,1.58.89l21.25-21.42c.23-.23.32-.55.25-.87-1.19-5.51-2.91-10.95-3.74-16.54-10.82-72.61,51.06-134.46,123.64-123.64,5.59.83,11.03,2.55,16.54,3.74.31.07.64-.03.87-.25l21.78-21.61c.7-.69,0-1.86-.94-1.57-1.84.57-3.64,1.31-5.52,1.68-11.1,2.18-22.31-1.09-30.53-8.8-1.26-1.18-4.8-6.4-6.21-6.67-.88-.17-10.03,6.99-12.29,8.04-7.49,3.49-16.51,4.04-24.38,1.66-2.29-.69-11.75-5.8-12.41-5.65-.73.17-6.96,10.23-8.76,12.05-7.72,7.79-17.48,10.15-28.21,9.58-1.32-.07-7.63-1.45-7.92-1.17-.21.21-.72,4.66-.99,5.76-3.92,16.06-11.79,23.92-27.84,27.84-1.1.27-5.55.78-5.76.99-.28.28,1.1,6.6,1.17,7.92.58,10.8-1.73,20.44-9.58,28.21ZM265.32,144.2c-.33-.45-9.5-2.08-10.92-2.27-67.1-8.87-122.43,45.99-113.24,113.24.2,1.43,1.81,10.6,2.27,10.92.67.48,1.33-.54,1.76-.87,1.13-.88,5.92-5.66,6.87-7.29.11-.19.15-.41.11-.62-3.83-22.94.18-46.3,13.05-65.83,16.52-25.08,44.46-39.75,74.53-40.28.04,0,.08,0,.13,0l16.71,1.75c.17.02.35,0,.51-.09,1.54-.82,6.48-5.77,7.37-6.92.33-.43,1.36-1.09.87-1.76ZM247.45,162.07c.57-.57.2-1.56-.6-1.61-21.3-1.22-42.13,4.49-58.57,18.32-20.37,17.13-30.35,42.35-28.6,68.85.05.8,1.04,1.16,1.61.59l86.16-86.16ZM355.59,321.77c.28-.28-1.1-6.6-1.17-7.92-.57-10.55,1.57-20.07,9.14-27.77,2.01-2.04,12.31-8.45,12.49-9.2s-5.43-10.99-6.11-13.71c-1.85-7.39-1.11-16.14,2.13-23.08,1.17-2.52,7.97-10.97,8.05-11.89.15-1.6-5.49-5.34-6.68-6.61-7.71-8.22-10.98-19.43-8.8-30.53.37-1.88,1.12-3.68,1.68-5.52.29-.94-.87-1.64-1.57-.94l-21.58,21.75c-.24.25-.33.6-.23.93,16.07,52.17-8.44,108.78-58.07,131.43-8.08,3.69-26.5,9.84-35.07,9.5-4.87-.19-5.98-6.37-1.78-8.59.11-.06.23-.09.36-.1,41.38-4.03,76.45-32.99,87.11-73.27,4-15.09,4.94-34.98.56-50.06-.19-.64-.21-2.08-1.27-1.64-.71.3-6.6,6.46-7.74,8.16-.13.2-.17.43-.13.66,6.57,36.63-9.32,73.48-41.13,92.81-13.48,8.19-30.65,13.32-46.54,13.24-4.79-.03-10.73-1.65-15.27-1.77-.97-.03-1.66-.11-2.6.32-.5.23-6.12,5.91-6.75,6.72-.33.43-1.36,1.09-.87,1.76.9,1.25,15.12,2.07,17.55,3.26,4.01,1.96,2.8,8.63-2.58,8.49-7.1-.18-15.23-3.18-22.29-4.53-.31-.06-.62.04-.84.26l-21.79,21.62c-.7.69,0,1.86.94,1.57,1.84-.57,3.64-1.31,5.52-1.68,11.1-2.18,22.31,1.09,30.53,8.8,1.26,1.18,4.8,6.4,6.21,6.67.88.17,10.03-6.99,12.29-8.04,6.95-3.24,15.69-3.98,23.08-2.13,2.72.68,12.98,6.28,13.71,6.11.74-.17,6.98-10.38,8.85-12.26,7.66-7.67,17.55-9.94,28.12-9.37,1.32.07,7.63,1.45,7.92,1.17.22-.22.77-5.03,1.1-6.23,3.16-11.55,11.08-21.29,22.36-25.7,2.34-.92,10.72-2.25,11.13-2.65ZM317.77,232.4l-86.16,86.16c-.57.57-.21,1.55.6,1.61,26.51,1.72,51.71-8.22,68.85-28.6,13.83-16.44,19.52-37.28,18.32-58.57-.05-.81-1.04-1.18-1.61-.6Z"/>
      <text class="cls-4" transform="translate(150.52 360.48) rotate(-45)"><tspan x="0" y="0">ORIGINAL</tspan></text>
    </g>
  </g>
  <text class="cls-1" transform="translate(103.83 -24.82)"><tspan x="0" y="0">480x480px</tspan></text>
</svg>