<?xml version="1.0" standalone="no"?>
<!DOCTYPE svg PUBLIC "-//W3C//DTD SVG 20010904//EN"
 "http://www.w3.org/TR/2001/REC-SVG-20010904/DTD/svg10.dtd">
<svg version="1.0" xmlns="http://www.w3.org/2000/svg"
 width="1024.000000pt" height="1024.000000pt" viewBox="0 0 1024.000000 1024.000000"
 preserveAspectRatio="xMidYMid meet">

<g transform="translate(0.000000,1024.000000) scale(0.100000,-0.100000)"
fill="#000000" stroke="none">
<path d="M3231 6369 c-112 -13 -295 -64 -404 -114 -182 -81 -318 -169 -524
-340 -144 -119 -500 -475 -600 -600 -134 -168 -256 -336 -305 -420 -122 -210
-147 -430 -68 -591 46 -95 124 -156 263 -209 l68 -25 -32 46 c-97 141 -103
297 -17 464 157 307 940 1137 1408 1494 183 139 345 242 455 288 l40 17 -105
-1 c-58 0 -138 -4 -179 -9z"/>
<path d="M1460 5663 c0 -496 0 -507 19 -488 10 11 82 92 159 180 77 88 165
185 196 215 l56 54 0 273 0 273 -215 0 -215 0 0 -507z"/>
<path d="M7635 5840 c-134 -18 -237 -72 -334 -175 -97 -104 -141 -220 -141
-372 0 -171 72 -320 205 -420 114 -87 230 -120 384 -110 292 19 511 247 511
532 0 153 -51 279 -159 386 -122 123 -295 181 -466 159z m220 -229 c73 -36
117 -82 154 -161 22 -47 26 -69 26 -150 0 -76 -4 -104 -22 -142 -29 -63 -96
-134 -158 -166 -44 -24 -62 -27 -145 -27 -113 0 -165 19 -232 87 -72 72 -93
125 -93 243 0 87 3 107 26 156 46 98 124 165 223 190 61 16 153 3 221 -30z"/>
<path d="M3550 5305 l0 -525 110 0 110 0 0 168 0 168 55 54 c35 34 58 51 63
44 4 -6 77 -106 162 -222 l155 -212 134 0 c129 0 133 1 120 19 -8 10 -90 115
-183 233 -93 117 -191 241 -218 275 l-49 62 216 230 216 231 -136 0 -136 0
-32 -37 c-103 -119 -361 -408 -366 -411 -3 -1 -5 99 -3 223 l3 225 -111 0
-110 0 0 -525z"/>
<path d="M4802 5438 c-89 -216 -186 -453 -216 -525 l-55 -133 114 0 113 0 30
78 c16 42 35 94 41 115 l13 37 215 -2 216 -3 42 -110 43 -110 117 -3 c92 -2
116 0 112 10 -14 32 -267 654 -340 835 l-82 203 -101 0 -101 0 -161 -392z
m326 -53 c33 -88 63 -168 67 -177 7 -17 -4 -18 -134 -18 -78 0 -141 2 -141 5
0 5 69 179 117 293 14 34 27 61 28 60 2 -2 30 -75 63 -163z"/>
<path d="M5750 5305 l0 -525 110 0 110 0 0 525 0 525 -110 0 -110 0 0 -525z"/>
<path d="M6200 5305 l0 -525 110 0 110 0 0 180 0 180 79 0 c94 0 78 16 221
-212 l92 -148 124 0 123 0 -68 108 c-37 59 -92 146 -123 193 l-55 85 43 23
c57 31 119 94 147 151 18 37 22 62 22 145 0 89 -3 106 -28 157 -50 101 -140
158 -280 177 -43 6 -177 11 -298 11 l-219 0 0 -525z m538 312 c48 -26 72 -71
72 -138 0 -62 -22 -105 -73 -143 -25 -19 -45 -21 -173 -24 l-144 -4 0 165 0
165 143 -2 c115 -1 148 -5 175 -19z"/>
<path d="M8360 5730 l0 -100 245 -2 244 -3 -97 -130 c-53 -72 -168 -224 -254
-338 l-158 -207 0 -85 0 -85 390 0 390 0 0 95 0 95 -256 2 -256 3 54 70 c31
39 148 191 262 339 l206 270 0 88 0 88 -385 0 -385 0 0 -100z"/>
<path d="M2165 5154 c-55 -64 -110 -130 -123 -145 l-23 -28 243 -279 c134
-153 266 -304 293 -335 l50 -58 271 3 271 3 -226 246 c-456 496 -547 595 -601
652 l-55 59 -100 -118z"/>
<path d="M3548 4253 c-2 -10 -4 -67 -3 -128 0 -106 1 -110 22 -113 21 -3 22 0
25 82 l3 86 62 -85 c43 -58 69 -85 83 -85 19 0 20 6 20 130 0 123 -1 130 -20
130 -18 0 -20 -7 -21 -62 -1 -35 -1 -71 0 -80 4 -33 -14 -18 -72 62 -58 79
-90 99 -99 63z"/>
<path d="M3861 4244 c-39 -33 -56 -90 -41 -143 32 -120 201 -124 240 -5 30 90
-28 174 -120 174 -38 0 -55 -6 -79 -26z m134 -39 c53 -52 18 -155 -53 -155
-33 0 -69 30 -78 65 -22 86 72 150 131 90z"/>
<path d="M4080 4250 c0 -17 7 -20 40 -20 l40 0 0 -110 0 -110 25 0 25 0 0 110
0 110 40 0 c33 0 40 3 40 20 0 19 -7 20 -105 20 -98 0 -105 -1 -105 -20z"/>
<path d="M4490 4171 c0 -104 -11 -131 -46 -117 -9 4 -23 1 -30 -5 -22 -18 2
-39 46 -39 62 0 74 23 78 151 l4 109 -26 0 -26 0 0 -99z"/>
<path d="M4600 4185 c0 -135 26 -175 110 -175 33 0 48 6 71 29 28 29 29 32 29
130 0 94 -1 101 -20 101 -19 0 -20 -7 -20 -90 0 -99 -15 -130 -64 -130 -42 0
-56 34 -56 132 0 87 0 88 -25 88 -25 0 -25 -1 -25 -85z"/>
<path d="M4895 4245 c-49 -48 -28 -98 51 -121 58 -17 74 -34 54 -59 -16 -19
-60 -19 -87 0 -20 14 -23 14 -33 -4 -15 -29 22 -51 83 -51 38 0 53 5 72 25 50
49 23 104 -60 128 -42 12 -50 18 -50 38 0 21 5 24 35 23 19 0 42 -4 51 -8 11
-5 19 -1 23 11 18 46 -97 61 -139 18z"/>
<path d="M5080 4251 c0 -16 8 -20 38 -23 l37 -3 3 -107 c2 -100 4 -108 22
-108 19 0 20 7 20 110 l0 110 40 0 c33 0 40 3 40 20 0 19 -7 20 -100 20 -92 0
-100 -1 -100 -19z"/>
<path d="M5440 4140 l0 -130 25 0 c24 0 25 3 25 55 l0 55 50 0 c43 0 50 3 50
20 0 17 -7 20 -50 20 l-50 0 0 35 0 35 55 0 c48 0 55 2 55 20 0 18 -7 20 -80
20 l-80 0 0 -130z"/>
<path d="M5701 4248 c-5 -13 -28 -70 -50 -127 -23 -58 -41 -106 -41 -108 0 -2
11 -3 24 -3 17 0 27 9 36 30 12 28 16 30 65 30 49 0 53 -2 65 -30 9 -21 19
-30 36 -30 l24 0 -21 53 c-12 28 -35 87 -51 130 -26 67 -33 77 -54 77 -16 0
-28 -8 -33 -22z m68 -130 c1 -5 -15 -8 -34 -8 -19 0 -35 2 -35 5 0 2 8 24 17
47 l17 42 17 -40 c10 -21 18 -42 18 -46z"/>
<path d="M5915 4245 c-47 -46 -21 -99 61 -125 41 -13 49 -19 49 -40 0 -20 -6
-26 -28 -28 -15 -2 -41 3 -57 12 -28 13 -31 13 -40 -4 -14 -26 11 -43 75 -48
47 -4 57 -1 79 21 43 43 26 108 -31 121 -56 13 -83 28 -83 47 0 24 43 35 76
20 28 -12 44 -7 44 14 0 41 -107 48 -145 10z"/>
<path d="M6130 4140 l0 -130 25 0 c24 0 25 3 25 55 l0 55 55 0 55 0 0 -55 c0
-52 1 -55 25 -55 l25 0 0 130 0 130 -25 0 c-24 0 -25 -3 -25 -55 l0 -55 -55 0
-55 0 0 55 c0 52 -1 55 -25 55 l-25 0 0 -130z"/>
<path d="M6420 4265 c-1 -3 -1 -60 -1 -127 0 -117 1 -123 20 -126 20 -3 21 1
21 127 0 124 -1 131 -20 131 -11 0 -20 -2 -20 -5z"/>
<path d="M6572 4254 c-74 -52 -66 -204 14 -234 37 -15 91 -12 125 6 80 41 75
203 -7 234 -38 15 -107 12 -132 -6z m122 -45 c22 -17 26 -28 26 -69 0 -41 -4
-52 -26 -69 -35 -27 -67 -26 -101 3 -22 19 -28 32 -28 66 0 34 6 47 28 66 34
29 66 30 101 3z"/>
<path d="M6830 4140 c0 -122 1 -130 20 -130 17 0 19 8 22 87 l3 87 65 -87 c49
-66 70 -87 85 -85 19 3 20 11 23 131 l3 127 -26 0 c-25 0 -25 -1 -25 -87 l0
-88 -62 87 c-47 65 -69 87 -85 88 -23 0 -23 -2 -23 -130z"/>
<path d="M7392 4253 c-6 -10 -26 -61 -45 -113 -20 -52 -39 -103 -42 -112 -6
-14 -2 -18 18 -18 19 0 28 7 36 30 9 28 13 30 65 30 52 0 55 -1 61 -30 5 -23
12 -30 31 -30 30 0 30 2 -2 86 -14 38 -35 93 -46 122 -16 43 -24 52 -43 52
-14 0 -28 -8 -33 -17z m51 -103 l15 -40 -35 0 c-28 0 -34 3 -29 16 3 9 9 27
12 40 9 34 19 30 37 -16z"/>
<path d="M7540 4250 c0 -16 7 -20 35 -20 l35 0 0 -110 0 -110 25 0 25 0 0 110
0 110 40 0 c33 0 40 3 40 20 0 19 -7 20 -100 20 -93 0 -100 -1 -100 -20z"/>
<path d="M7780 4250 c0 -17 7 -20 40 -20 l40 0 0 -110 c0 -103 1 -110 20 -110
19 0 20 7 20 110 l0 110 40 0 c33 0 40 3 40 20 0 19 -7 20 -100 20 -93 0 -100
-1 -100 -20z"/>
<path d="M8030 4140 l0 -130 25 0 25 0 0 130 0 130 -25 0 -25 0 0 -130z"/>
<path d="M8130 4250 c0 -17 7 -20 40 -20 l40 0 0 -110 c0 -103 1 -110 20 -110
19 0 20 7 20 110 l0 110 40 0 c33 0 40 3 40 20 0 19 -7 20 -100 20 -93 0 -100
-1 -100 -20z"/>
<path d="M8390 4169 c0 -98 1 -101 29 -130 23 -23 38 -29 71 -29 84 0 110 40
110 175 0 84 0 85 -25 85 -25 0 -25 0 -25 -94 0 -87 -2 -96 -22 -110 -30 -21
-54 -20 -78 4 -17 17 -20 33 -20 110 0 83 -1 90 -20 90 -19 0 -20 -7 -20 -101z"/>
<path d="M8670 4141 l0 -131 55 0 c108 0 155 42 155 139 0 42 -5 56 -29 83
-27 30 -34 33 -105 36 l-76 4 0 -131z m147 66 c8 -8 17 -32 20 -54 7 -52 -25
-92 -77 -95 l-35 -3 -3 89 -3 89 42 -6 c23 -3 48 -12 56 -20z"/>
<path d="M8940 4140 l0 -130 85 0 c85 0 85 0 85 26 0 25 -1 26 -60 22 l-60 -3
0 33 0 32 55 0 c48 0 55 2 55 20 0 18 -7 20 -55 20 l-55 0 0 35 0 35 60 0 c53
0 60 2 60 20 0 18 -7 20 -85 20 l-85 0 0 -130z"/>
<path d="M7108 4025 c-5 -45 17 -54 37 -15 21 40 19 50 -9 50 -20 0 -25 -6
-28 -35z"/>
</g>
</svg>
