<?xml version="1.0" encoding="UTF-8"?>
<svg id="Layer_1" data-name="Layer 1" xmlns="http://www.w3.org/2000/svg" viewBox="0 0 479.26 479.26">
  <defs>
    <style>
      .cls-1 {
        font-family: Poppins-SemiBold, Poppins;
        font-size: 48px;
        font-weight: 600;
      }

      .cls-1, .cls-2 {
        fill: #fff;
      }

      .cls-3 {
        fill: #191919;
      }

      .cls-2 {
        stroke: #f2f2f2;
        stroke-miterlimit: 10;
        stroke-width: 10px;
      }
    </style>
  </defs>
  <text class="cls-1" transform="translate(103.83 -24.83)"><tspan x="0" y="0">480x480px</tspan></text>
  <g>
    <circle class="cls-2" cx="239.63" cy="239.63" r="200"/>
    <g>
      <path class="cls-3" d="M272.19,278.38c-2.28,3.31.15,7.82,4.17,7.82h.06c.51,0,1.19.94,2.86.49,1.1-.3,3.99-2.65,5.69-3.43,2.25-1.03,4.69-1.84,7.18-2.37,3.25-.7,4.91-4.39,3.31-7.3-7.85-14.27-9.9-32.63,1.19-45.75,12.89-15.25,36.55-14.99,49.3.31,10.6,12.72,8.58,31.48.88,45.53-1.58,2.89.07,6.54,3.28,7.25,13.75,3.03,26.38,14.61,26.38,29.14,0,12.5,0,25.36,0,38.33,0,.93-.19,1.86-.64,2.68-.1.19-.22.37-.35.53-1.22,1.48-3.05,2.33-4.97,2.33h-47.08c-2.77,0-5.02,2.25-5.02,5.02v20.31c0,2.39-1.29,5.8-2.88,7.58-.23.26-.47.52-.7.75-1.61,1.61-4.53,2.01-6.8,2.01l-140.88.03c-.93,0-1.85-.27-2.64-.76-.35-.22-.67-.44-.95-.65-1.51-1.15-2.37-2.94-2.37-4.84v-24.43c0-2.77-2.25-5.02-5.02-5.02h-47.17c-1.59,0-3.09-.76-4.04-2.04l-.91-1.23c-.61-.82-.95-1.81-.98-2.83-.18-5.84-.74-26.5.04-37.17,1.1-14.99,12.27-26.6,26.29-29.7,3.34-.74,5.02-4.42,3.36-7.41-2.9-5.22-5.02-10.88-5.88-16.85-6.74-46.73,55.39-53.88,63.14-14.16,1.99,10.21-.72,21.69-5.85,31.06-1.61,2.93,0,6.64,3.27,7.33,2.52.54,4.99,1.33,7.21,2.33,1.65.75,5.11,3.42,6.19,3.56,1.24.16,2.04-.63,2.36-.63h0c4.07,0,6.41-4.56,4.11-7.9-7.44-10.8-11.76-24.18-12.3-37.12-1.57-38.01,39.54-61.89,70.96-39.52,25.07,17.84,22.22,53.44,6.16,76.72ZM274.91,238.44c-.14-25.54-25.43-42.48-49.14-32.51-11.87,4.99-19.46,16.58-21.01,29.17l26.31-14.24c2.3,0,10.91,6.95,13.8,8.61,9.03,5.17,19.56,8.74,30.04,8.97ZM171.29,275.11c14.02-13.05,14.02-45.96-9.22-48.7-24.28-2.86-30.99,22.06-21.93,40.68,5.92,12.18,20.28,18.14,31.16,8.02ZM317.09,226.5c-31.23,4.27-18.68,61.75,9.82,52.75,22.23-7.02,24.73-57.47-9.82-52.75ZM273.7,248.11c-15.87-.66-30.29-7.41-43.13-16.21l-25.09,15.36c2.62,17.68,13.13,38.41,33.43,38.98s32.85-19.96,34.8-38.13ZM112.85,309.49v34.77h48.37v-17.23c0-16.29,12.85-27.05,24.61-35.23.53-.37,1.12.1.79-1.35-17.84-1.19-35.93-.6-53.85-.34-9.44,1.47-18.76,9.61-19.92,19.38ZM366.82,344.25v-34.77c0-8.7-11.51-18.61-19.92-19.38-17.92-.26-36.01-.86-53.85.34-.3,1.42.19.97.78,1.35,11.86,7.66,24.62,19.56,24.62,35.23v17.23h48.37ZM308.77,379.93v-52.3c0-16.71-19.29-30.63-34.75-31.77-23.6-1.74-50.4.64-74.12.91-13.17,2.11-29,17.09-29,30.86v52.3h24.79v-31.75c0-.17,2.12-2.26,2.43-2.4,2.71-1.24,7.25.59,7.25,3.61v30.54h68.93v-30.54c0-3.02,4.54-4.85,7.25-3.61.31.14,2.43,2.23,2.43,2.4v31.75h24.79Z"/>
      <path class="cls-3" d="M256.3,115.55c5.45,2.09,25.44,2.72,28.85,5.91,1.52,1.42,1.76,4.33.67,6.05l-18.65,19.44c-.29.95-.16,1.92-.13,2.88.27,7.3,3.76,17.29,3.64,24.22-.05,2.98-3.15,5.48-6.08,4.88l-25.03-11.85c-5.47,1.29-21.49,12.39-25.9,11.96-2.4-.23-4.65-2.58-4.69-5-.12-6.91,3.38-16.93,3.64-24.22.04-.97.16-1.93-.13-2.88l-18.65-19.44c-1.65-3.7-.26-6.34,3.52-7.43,4.11-1.19,24.43-3.28,25.99-4.55l13.83-25.17c2.22-1.27,4.97-.9,6.56,1.16l12.56,24.02ZM240.43,105.41c-1.41-.31-.97.19-1.35.78-2.18,3.37-7.52,16.36-9.9,17.9l-20.79,3.7c-.27,1.05.44,1.21.9,1.81,2.03,2.65,5.54,5.25,7.87,7.85,1,1.12,5.19,5.76,5.46,6.63,1.15,3.57-3.2,20.01-2.14,21.19,6.4-1.53,15.34-9.86,21.78-8.18,2.66.7,16.24,9.1,17.52,8.17l-2.9-20.72c.67-2.97,11.1-11.83,13.49-14.94.47-.61,1.17-.77.9-1.81-4.69-1.26-17.21-1.38-20.79-3.7-2.66-1.73-8.03-15.2-10.05-18.67Z"/>
      <path class="cls-3" d="M333.99,112.79c1.9-.57,4.26-.09,5.63,1.37,2.16,2.31,7.6,16.09,9.05,16.95,5.46,1.63,13.3,1.4,18.43,3.33,11.22,4.23-7.86,16.59-10.47,20.99-.09,5.92,2.71,12.84,2.36,18.63-.72,11.89-17.39-2.29-22.76-3.34-3.35-.22-13.96,7.92-18.24,8.33-2.25.22-5.07-1.74-5.5-3.95-.67-3.39,2.17-12.61,2.32-16.8.04-.97.16-1.94-.13-2.88-2.73-4.92-9.76-9.17-12.57-13.42-6.92-10.45,16.97-8.29,20.91-11.15,2.63-3.03,7.78-17.1,10.97-18.06ZM348.07,165.27c.12-4.07-2.91-10.75-.6-14.21.96-1.44,7.82-7.88,7.85-8.46-3.24-2.13-10.05-1.04-13-3.31-1.39-1.07-6.22-12.04-6.93-11.5-1.34,3.09-3.9,9.97-6.68,11.77-3.01,1.95-9.15,1.45-12.68,2.75-.4.55,8.43,7.81,8.95,10.1.71,3.15-1.27,9.44-1.69,12.86,1.12.82,8.47-4.08,10.26-4.54,5.17-1.34,9.74,3.27,14.53,4.55Z"/>
      <path class="cls-3" d="M142.31,112.8c1.05-.24,2.34-.32,3.37,0,3.18.96,8.34,15.02,10.97,18.06,5.52,1.92,12.29,1.71,17.77,3.39,12.53,3.84-6.96,16.02-9.44,21.17-.29.95-.16,1.92-.13,2.88.17,4.54,2.79,12.27,2.42,16.29-.19,2-2.29,3.98-4.21,4.36-3.95.78-14.69-7.19-19.11-8.23-3.18-.21-13.61,7.56-17.78,8.23-10.26,1.64-2.43-18.45-3.13-23.51-.45-1.56-9.84-9.59-11.7-11.92-9.33-11.7,13.48-10.11,19.65-12.41,1.26-.78,6.84-13.82,8.57-16.22.74-1.03,1.46-1.78,2.76-2.08ZM163.65,142.3c-.38-.52-9.43-1.49-11.04-1.97-4.33-1.29-6.4-9-8.61-12.55-1.38.68-4.5,9.76-6.63,11.51-1.89,1.55-13.06,2.16-13.01,3.3,1.3,1.78,7.9,7.73,8.33,9.19,1.1,3.76-1.01,9.54-1.08,13.48,4.1-.37,8.55-4.89,12.39-4.89,2.93,0,11.26,5.72,12.4,4.89-.46-3.69-2.62-9.88-1.54-13.33.58-1.85,9.18-9.11,8.8-9.63Z"/>
    </g>
  </g>
</svg>