<?xml version="1.0" encoding="UTF-8"?>
<svg id="Layer_1" data-name="Layer 1" xmlns="http://www.w3.org/2000/svg" viewBox="0 0 479.26 479.26">
  <defs>
    <style>
      .cls-1 {
        fill: #ef4d78;
        opacity: .9;
      }
    </style>
  </defs>
  <path class="cls-1" d="M427.88,170.04c-1.42,35.34-18.65,64.01-39.84,90.89-21.09,26.76-45.37,50.96-69.68,74.73-25.7,25.12-52.03,49.55-78.49,73.86-.41.11-1.79-1.15-2.23-1.53-10.57-9.2-21.13-19.43-31.42-29.02-33.67-31.36-68.4-63.88-98.71-98.47-31.99-36.51-61.06-76.11-55.53-127.74,4.81-44.88,42.08-80.45,87.26-82.81,34.43-1.8,62.65,11.14,85.7,36.02,5.42,5.86,10.06,12.39,14.74,18.84,20.14-27.98,47.91-51.7,83.72-54.69,60.25-5.04,106.9,39.56,104.48,99.92Z"/>
</svg>