<svg width="55" height="16" viewBox="0 0 55 16" fill="none" xmlns="http://www.w3.org/2000/svg">
<path d="M17.5101 5.85961L16.9627 6.87026C16.3595 6.55424 15.8025 6.38307 15.385 6.38307C15.0972 6.38307 14.8931 6.49107 14.8931 6.71664C14.8931 7.38436 17.5288 7.05957 17.5191 8.75588C17.5191 9.75738 16.6194 10.3077 15.4128 10.3077C14.5777 10.3077 13.7704 10.0732 13.167 9.62208L13.6775 8.62955C14.2436 9.01752 14.8931 9.23411 15.4499 9.23411C15.7656 9.23411 15.9974 9.12591 15.9974 8.90035C15.9974 8.18739 13.4082 8.55742 13.4176 6.85213C13.4176 5.85064 14.2899 5.30924 15.4499 5.30924C16.1738 5.30924 16.8975 5.50771 17.5101 5.85961Z" fill="#3D494B"/>
<path d="M23.1495 7.1776V10.2452H21.5533V7.61079C21.5533 7.0423 21.2098 6.6904 20.6718 6.6904C20.0871 6.6904 19.7157 7.09649 19.6509 7.67396V10.2452H18.0453V5.38205H19.6509V6.1761C20.0035 5.60761 20.579 5.31907 21.3213 5.30991C22.4256 5.30991 23.1495 6.0408 23.1495 7.1776Z" fill="#3D494B"/>
<path d="M26.7641 8.59624V8.16304H25.7527C25.27 8.16304 25.029 8.32544 25.029 8.68631C25.029 9.0384 25.2889 9.26377 25.7341 9.26377C26.2354 9.26377 26.6623 8.99317 26.7641 8.59624ZM28.3416 7.07148V10.2473H26.7736V9.68799C26.4489 10.1031 25.9197 10.3195 25.2424 10.3195C24.1752 10.3195 23.5257 9.68799 23.5257 8.7947C23.5257 7.87431 24.2031 7.33311 25.4465 7.32395H26.7641V7.25182C26.7641 6.77359 26.4395 6.48486 25.79 6.48486C25.3723 6.48486 24.8247 6.62912 24.2957 6.89095L23.8411 5.86236C24.6208 5.51046 25.3258 5.3118 26.161 5.3118C27.5345 5.3118 28.3326 5.97056 28.3416 7.07148Z" fill="#3D494B"/>
<path d="M32.9916 7.79032C32.9916 7.05045 32.5368 6.52719 31.8687 6.52719C31.2194 6.52719 30.7646 7.05045 30.7646 7.79032C30.7646 8.54831 31.2194 9.06241 31.8687 9.06241C32.5368 9.06241 32.9916 8.53914 32.9916 7.79032ZM34.6066 7.83535C34.6066 9.31507 33.6973 10.2984 32.2956 10.2984C31.6463 10.2984 31.1171 10.0458 30.7646 9.59483V11.9948H29.1592V5.38124H30.7646V6.02186C31.1171 5.5797 31.6275 5.32704 32.2587 5.32704C33.6694 5.32704 34.6066 6.32853 34.6066 7.83535Z" fill="#3D494B"/>
<path d="M43.4224 7.3129V10.2452H42.6988V7.50239C42.6988 6.65433 42.1882 6.15797 41.3436 6.15797C40.3322 6.18507 39.7477 6.88887 39.7477 7.90849V10.2452H39.0146V7.50239C39.0146 6.65433 38.5134 6.15797 37.6596 6.15797C36.6574 6.18507 36.054 6.88887 36.054 7.90849V10.2452H35.3392V5.49025H36.054V6.56407C36.3789 5.82421 37.0378 5.47231 37.9195 5.46334C38.8381 5.46334 39.4691 5.92344 39.6735 6.70834C39.9795 5.86944 40.6663 5.47231 41.6037 5.46334C42.7451 5.46334 43.4224 6.16694 43.4224 7.3129Z" fill="#3D494B"/>
<path d="M44.6521 5.49025H45.3666V10.2452H44.6521V5.49025ZM45.4781 4.1277C45.4781 4.40746 45.274 4.61489 45.0049 4.61489C44.7358 4.61489 44.5314 4.40746 44.5314 4.1277C44.5314 3.84813 44.7358 3.6405 45.0049 3.6405C45.274 3.6405 45.4781 3.84813 45.4781 4.1277Z" fill="#3D494B"/>
<path d="M51.2376 7.3129V10.2452H50.5139V7.50239C50.5139 6.6633 49.9941 6.16694 49.1311 6.16694C48.166 6.1761 47.572 6.78944 47.4886 7.6917V10.2452H46.7645V5.49025H47.4886V6.53697C47.8319 5.81504 48.4906 5.47231 49.3815 5.46334C50.5508 5.46334 51.2376 6.16694 51.2376 7.3129Z" fill="#3D494B"/>
<path d="M55 9.92275C54.6567 10.1483 54.2855 10.2747 53.8957 10.2838C53.1813 10.2838 52.6523 9.86875 52.6523 8.93023V6.21448H51.9468V5.64599H52.6523V4.39183H53.3665V5.64599L54.9166 5.63702V6.21448H53.3665V8.8039C53.3665 9.38155 53.5987 9.59796 54.0164 9.59796C54.2669 9.59796 54.5268 9.51666 54.7959 9.35426L55 9.92275Z" fill="#3D494B"/>
<path d="M1.64062 5.57986C1.12327 4.18943 1.64984 3.07135 2.02943 2.50871C2.54036 1.7513 3.34405 1.26898 3.98813 1.08884C3.98974 2.02327 3.98833 3.57629 3.98773 4.03639C3.58669 4.15063 2.41584 4.55731 1.64062 5.57986ZM4.17963 0.211925C3.21732 0.517617 2.27888 1.18924 1.53955 2.0995C0.605517 3.19769 0.075536 4.53021 0.00715783 5.95827L0.00655621 5.9805C0.00314733 6.05517 0.00114215 6.13003 0.000540585 6.20392L-6.10352e-05 6.26221C-6.10352e-05 6.3361 0.00154321 6.4096 0.00435053 6.4831L0.00495215 6.50688C0.107018 9.18988 1.93077 11.5767 4.54398 12.4462L4.7792 12.5244V7.86319L4.62058 7.84643C4.3603 7.81894 4.10123 7.76299 3.85078 7.68052C3.08117 7.4263 2.42005 6.92448 1.97789 6.26221C2.42165 5.59702 3.08578 5.09461 3.8592 4.84098C4.10644 4.75987 4.36231 4.70509 4.62058 4.67799L4.7792 4.66123V6.67572e-06L4.54398 0.0781851C4.42146 0.118736 4.29473 0.16533 4.17963 0.211925Z" fill="#657173"/>
<path d="M6.58204 14.9108C6.58044 13.9764 6.58204 12.4233 6.58224 11.9632C6.98349 11.849 8.15454 11.4423 8.92916 10.42C9.44731 11.8102 8.92034 12.9281 8.54075 13.4911C8.03042 14.2481 7.22632 14.7304 6.58204 14.9108ZM10.5662 9.51691L10.565 9.49254C10.4636 6.80994 8.63981 4.42308 6.02639 3.55338L5.79138 3.4752V8.13662L5.95 8.15319C6.21027 8.18068 6.46915 8.23644 6.7194 8.3189C7.48901 8.57332 8.15013 9.07494 8.59228 9.73741C8.14852 10.4028 7.48439 10.9052 6.71118 11.1586C6.46393 11.2397 6.20807 11.2945 5.95 11.3218L5.79138 11.3384V16L6.02639 15.9216C6.15373 15.8789 6.27925 15.8327 6.39074 15.7879C7.35325 15.4818 8.2917 14.81 9.03062 13.8999C9.96486 12.8019 10.4946 11.4694 10.5632 10.0398L10.5634 10.0189C10.567 9.94387 10.5692 9.86939 10.5698 9.78576L10.5704 9.73741C10.5704 9.66371 10.5688 9.59002 10.5662 9.51691Z" fill="#657173"/>
</svg>
